PathFileType	4	(X/Y/Z)	C:\Users\Basilio\Documents\Thesis Gigler\squatting_fais\c3dfiles\041\SJ_pre3\markers_experimental.trc
DataRate	CameraRate	NumFrames	NumMarkers	Units	OrigDataRate	OrigDataStartFrame	OrigNumFrames
200.000000	200.000000	4	62	mm	200.000000	1469	1679
Frame#	Time	FHD			LBHD			RBHD			C7			T10			CLAV			LSHO			LUUPA			LMUPA			LDUPA			LLEP			LMEP			LRAD			LUL			LRFIN			RSHO			RUPA1			RMUPA			RDUPA			RLEP			RMEP			RRAD			RUL			RUFIN			LASI			RASI			USACR			LSACR			RSACR			LTHI1			LTHI2			LTHI3			LTHI4			LLFC			LMFC			LTIB1			LTIB2			LTIB3			LTIB4			LLMAL			LMMAL			LHEE			LMT1			LMT2			LMT5			RTHI			RTHI2			RTHI3			RTHI4			RLFC			RMFC			RTIB1			RTIB2			RTIB3			RTIB4			RLMAL			RMMAL			RHEE			RMT1			RMT2			RMT5			*61			
		X1	Y1	Z1	X2	Y2	Z2	X3	Y3	Z3	X4	Y4	Z4	X5	Y5	Z5	X6	Y6	Z6	X7	Y7	Z7	X8	Y8	Z8	X9	Y9	Z9	X10	Y10	Z10	X11	Y11	Z11	X12	Y12	Z12	X13	Y13	Z13	X14	Y14	Z14	X15	Y15	Z15	X16	Y16	Z16	X17	Y17	Z17	X18	Y18	Z18	X19	Y19	Z19	X20	Y20	Z20	X21	Y21	Z21	X22	Y22	Z22	X23	Y23	Z23	X24	Y24	Z24	X25	Y25	Z25	X26	Y26	Z26	X27	Y27	Z27	X28	Y28	Z28	X29	Y29	Z29	X30	Y30	Z30	X31	Y31	Z31	X32	Y32	Z32	X33	Y33	Z33	X34	Y34	Z34	X35	Y35	Z35	X36	Y36	Z36	X37	Y37	Z37	X38	Y38	Z38	X39	Y39	Z39	X40	Y40	Z40	X41	Y41	Z41	X42	Y42	Z42	X43	Y43	Z43	X44	Y44	Z44	X45	Y45	Z45	X46	Y46	Z46	X47	Y47	Z47	X48	Y48	Z48	X49	Y49	Z49	X50	Y50	Z50	X51	Y51	Z51	X52	Y52	Z52	X53	Y53	Z53	X54	Y54	Z54	X55	Y55	Z55	X56	Y56	Z56	X57	Y57	Z57	X58	Y58	Z58	X59	Y59	Z59	X60	Y60	Z60	X61	Y61	Z61	X62	Y62	Z62	

1470	7.345	-239.4973449707032	1749.962036132813	-889.7801513671877	-398.7476806640626	1662.063110351563	-980.2669067382815	-389.0552673339845	1659.227416992188	-827.1359863281252	-431.4080810546876	1521.656005859375	-930.307312011719	-452.2754211425782	1203.419799804688	-944.2054443359377	-273.5720214843751	1458.782104492188	-922.3621826171877	-330.1368713378907	1521.509399414063	-1097.931762695313	-376.3663940429688	1392.953979492188	-1246.96533203125	-356.7615966796876	1347.123657226563	-1245.894287109375	-397.3650512695314	1344.085205078125	-1291.64990234375	-409.6097106933595	1299.06494140625	-1318.47509765625	-473.5601806640626	1261.914184570313	-1263.336669921875	-345.1166381835938	1099.451416015625	-1149.830322265625	-327.5710449218751	1058.867309570313	-1210.396606445313	-300.7332763671876	1078.38134765625	-1109.328735351563	-343.4111938476563	1502.900634765625	-752.0837402343751	-411.0829467773439	1358.599975585938	-597.7761840820314	-370.3050842285157	1328.414428710938	-604.8652343750001	-396.8404541015626	1297.829345703125	-563.8433227539064	-394.8641357421876	1249.050903320313	-546.2825927734376	-470.6092834472657	1227.623413085938	-598.8280639648439	-375.4440917968751	1061.369018554688	-721.7695922851564	-331.1903381347657	1053.491577148438	-764.6820678710939	-347.3383483886719	1015.37109375	-667.5035400390626	-268.0746154785157	1014.600341796875	-1044.864990234375	-287.6316833496094	1003.025695800781	-828.4348754882815	-455.2432250976564	1093.2705078125	-948.9957275390627	-468.5256347656251	1068.565551757813	-977.3486938476565	-477.9929504394532	1068.379272460938	-924.325866699219	-400.9100952148439	825.8017578125002	-1148.128051757813	-371.0173645019532	747.0084838867189	-1153.946044921875	-324.2942504882813	746.5224609375001	-1141.8154296875	-404.4168395996095	695.3949584960939	-1149.19287109375	-400.933074951172	515.7805786132814	-1156.45947265625	-392.6622924804689	479.5258178710939	-1042.510620117188	-367.8819580078126	320.7071533203126	-1132.088500976563	-415.2413635253907	286.1161804199219	-1200.685668945313	-378.1614379882813	279.9170837402344	-1175.323608398438	-376.2103271484376	198.0262756347657	-1155.378173828125	-431.7470092773439	102.9748458862305	-1207.774047851563	-391.2879333496095	103.2133255004883	-1127.543212890625	-487.1231384277345	53.37113189697267	-1176.246826171875	-269.6242980957032	60.5035858154297	-1151.622924804688	-264.0049133300782	59.0729331970215	-1195.885131835938	-303.6012573242188	33.84997940063477	-1251.658325195313	-426.2071533203126	765.3075561523439	-748.6720581054689	-390.6746520996095	709.8587036132814	-738.2947387695314	-357.4565734863282	709.5995483398439	-740.7008666992189	-419.3594055175782	630.9504394531251	-750.1264648437501	-415.9256591796876	504.929901123047	-737.4055175781251	-391.7147827148439	474.0403442382814	-851.7026367187502	-383.9550170898438	336.7894287109376	-726.3734130859376	-467.818328857422	263.8579711914063	-706.2584838867189	-420.8477478027345	260.6169128417969	-704.5056152343751	-398.0798950195314	209.6006011962891	-726.7892456054689	-455.9016418457032	95.3921356201172	-703.0493774414064	-423.277557373047	101.2211532592774	-781.3361816406252	-509.4303283691407	48.9595413208008	-749.7215576171876	-291.3366394042969	53.05379104614259	-743.9054565429689	-291.1152343750001	57.88008880615236	-691.5054321289064	-338.8500061035157	36.43696212768555	-644.8377685546876	-4216.698242187501	853.0983886718752	-3944.614990234376	
1471	7.350000000000001	-239.1108856201172	1749.686889648438	-889.6918945312502	-398.7024230957032	1662.125732421875	-980.312683105469	-388.8507080078126	1659.313598632813	-827.181335449219	-431.4014282226564	1521.628051757813	-930.3388671875002	-452.2258300781251	1203.407958984375	-944.1318969726565	-273.6499023437501	1458.7978515625	-922.4567871093752	-330.3419189453126	1521.470458984375	-1097.97265625	-376.7478027343751	1392.948974609375	-1246.990844726563	-357.0772705078126	1347.150268554688	-1245.831787109375	-397.6927795410157	1343.971313476563	-1291.584106445313	-409.9642639160157	1298.999633789063	-1318.364501953125	-473.7930908203126	1261.755615234375	-1263.158813476563	-345.0570678710938	1099.441162109375	-1149.805419921875	-327.5932006835938	1058.85107421875	-1210.414306640625	-300.6249084472657	1078.374389648438	-1109.355590820313	-343.3455810546876	1502.898681640625	-752.1585083007814	-411.0121459960939	1358.636596679688	-597.7788085937501	-370.2429504394532	1328.399291992188	-604.8441162109376	-396.7677307128907	1297.876586914063	-563.7956542968751	-394.9519348144532	1249.3525390625	-546.4044189453126	-470.5213012695314	1227.679809570313	-598.8435668945314	-375.3394775390626	1061.401733398438	-721.7817993164064	-331.1138000488282	1053.489990234375	-764.6979980468751	-347.2765502929688	1015.413940429688	-667.4709472656251	-267.9813232421876	1014.58203125	-1044.896850585938	-287.5247802734376	1003.076232910156	-828.4400024414065	-455.1390380859376	1093.232299804688	-948.9841308593752	-468.4223022460939	1068.533325195313	-977.3220825195315	-477.9061279296876	1068.330810546875	-924.269958496094	-400.787567138672	825.856872558594	-1148.001342773438	-370.8220214843751	746.9974365234376	-1153.86962890625	-324.0733337402344	746.5001220703126	-1141.752563476563	-404.3414001464845	695.4519042968751	-1149.158447265625	-400.7439575195314	515.7593994140626	-1156.421630859375	-392.4291992187501	479.5073852539064	-1042.428100585938	-367.8004760742188	320.7593994140626	-1132.158081054688	-415.080047607422	286.1656799316407	-1200.656494140625	-378.0493469238282	279.7580566406251	-1175.29931640625	-376.1750488281251	197.9781341552735	-1155.416870117188	-431.7535705566407	102.9788818359375	-1207.710571289063	-391.2201538085939	103.1754226684571	-1127.53759765625	-487.1147766113282	53.38278579711915	-1176.16455078125	-269.6178588867188	60.49984741210939	-1151.620361328125	-263.9077453613282	59.0451011657715	-1195.87060546875	-303.6243591308594	33.85057830810548	-1251.664794921875	-426.0152587890626	765.3024902343751	-748.6834106445314	-390.3468017578126	710.0765991210939	-738.1485595703126	-357.0093688964844	709.9969482421876	-740.2915039062501	-419.2337341308595	630.9682006835939	-750.0928344726564	-415.6251831054689	504.9420776367189	-737.4066162109376	-391.3878784179689	474.0255126953126	-851.5777587890627	-383.8693542480469	336.7084960937501	-726.2894897460939	-467.6948852539064	263.9143066406251	-706.2432861328126	-420.6251831054689	260.6174011230469	-704.5780029296876	-397.7352294921876	209.4330596923829	-726.7860107421876	-455.8831787109376	95.39473724365236	-703.0607910156251	-423.3184204101564	101.268913269043	-781.3272094726565	-509.4165954589845	49.04583740234376	-749.7381591796876	-291.3585205078126	53.02761077880861	-743.8770141601564	-291.1174316406251	57.86588287353517	-691.5384521484376	-338.8014831542969	36.41203689575196	-644.8461303710939	-4216.713378906251	853.0826416015627	-3944.752197265626	
1472	7.355	-238.8763580322266	1749.56982421875	-889.7835083007815	-398.540740966797	1662.204223632813	-980.330505371094	-388.6644592285157	1659.407470703125	-827.2352294921877	-431.3666381835939	1521.692749023438	-930.2747802734377	-452.2118530273439	1203.416870117188	-944.1115722656252	-273.6480102539063	1458.860717773438	-922.5360107421877	-330.6632080078126	1521.468872070313	-1097.999389648438	-376.9863891601563	1392.881103515625	-1246.973022460938	-357.4231872558594	1347.125	-1245.8525390625	-397.9332275390626	1343.917724609375	-1291.56640625	-410.331512451172	1298.929565429688	-1318.248901367188	-474.0195922851564	1261.65625	-1262.991333007813	-345.0935974121094	1099.401977539063	-1149.7529296875	-327.6222229003907	1058.83837890625	-1210.380249023438	-300.6339111328126	1078.386352539063	-1109.307373046875	-343.2875671386719	1502.897094726563	-752.2064208984376	-411.020233154297	1358.640991210938	-597.8018188476564	-369.9820251464844	1328.451416015625	-605.0543212890626	-396.7384643554689	1297.880737304688	-563.8417358398439	-394.7739562988282	1249.33203125	-546.4751586914064	-470.4244384765626	1227.646606445313	-598.8725585937501	-375.1858215332032	1061.403198242188	-721.7750854492189	-331.0116577148438	1053.521118164063	-764.6703491210939	-347.1745605468751	1015.396911621094	-667.4556884765626	-267.9142761230469	1014.57958984375	-1044.902954101563	-287.3568115234376	1003.203918457031	-828.4304199218752	-455.081268310547	1093.199096679688	-948.951110839844	-468.4183349609376	1068.486206054688	-977.3090820312502	-477.8252563476564	1068.297973632813	-924.2589111328127	-400.635711669922	825.8452148437502	-1147.970458984375	-370.6117248535157	747.0031127929689	-1153.779663085938	-323.4724426269532	746.2956542968751	-1141.615844726563	-404.0952758789064	695.3118286132814	-1149.114990234375	-400.6671142578126	515.7923583984376	-1156.398315429688	-392.3435668945314	479.4957885742189	-1042.380737304688	-367.8012390136719	320.7085266113282	-1132.178100585938	-414.9724121093751	286.1846008300782	-1200.622802734375	-377.9974060058594	279.8115539550782	-1175.276489257813	-376.1045837402344	197.9749298095704	-1155.408325195313	-431.7677001953126	103.01025390625	-1207.695068359375	-391.2818603515626	103.1789093017578	-1127.521728515625	-487.082244873047	53.3682327270508	-1176.17431640625	-269.6123657226563	60.50571441650392	-1151.616943359375	-263.9207153320313	59.07325363159181	-1195.900146484375	-303.5916748046876	33.86383056640626	-1251.709594726563	-425.9107055664064	765.2883300781251	-748.6057128906251	-390.209930419922	710.0298461914064	-738.0869750976564	-356.8014526367188	709.9981689453126	-740.2543334960939	-419.0025634765626	630.9586791992189	-750.0360107421876	-415.2525634765626	504.9522399902345	-737.4273071289064	-391.294647216797	474.0984191894532	-851.4385986328127	-383.5975036621094	336.6981201171876	-726.3213500976564	-467.4589233398439	263.8285522460938	-706.2319946289064	-420.5297851562501	260.5882263183594	-704.5565185546876	-397.7417602539064	209.5242614746094	-726.8178710937501	-455.8400878906251	95.43119049072267	-703.0849609375001	-423.2306213378907	101.2473297119141	-781.3360595703127	-509.1382446289064	49.12898254394533	-749.8751831054689	-291.3367919921876	53.03334808349611	-743.8801879882814	-290.9275512695313	57.64048767089845	-691.5595092773439	-338.8371887207032	36.41611862182618	-644.8267211914064	-4216.929199218751	853.1624145507815	-3944.636230468751	
1473	7.36	-238.6509704589844	1749.430419921875	-889.8325805664065	-398.460662841797	1662.315795898438	-980.366882324219	-388.6068725585939	1659.472534179688	-827.2925415039065	-431.429901123047	1521.63916015625	-930.3196411132815	-452.1805419921876	1203.402221679688	-944.0902099609377	-273.5650939941407	1458.845703125	-922.6326904296877	-330.7944641113282	1521.513916015625	-1098.057739257813	-377.1941223144532	1392.802612304688	-1246.949584960938	-357.6777343750001	1347.058715820313	-1245.868286132813	-398.1448364257814	1343.888916015625	-1291.593872070313	-410.6756896972657	1298.81689453125	-1318.175415039063	-474.2051391601564	1261.499877929688	-1262.870849609375	-345.1195983886719	1099.37548828125	-1149.762084960938	-327.6593933105469	1058.853637695313	-1210.391723632813	-300.6916809082032	1078.360229492188	-1109.358642578125	-343.2472839355469	1502.947265625	-752.2405395507814	-410.9671020507814	1358.670166015625	-597.8388061523439	-369.9108886718751	1328.519775390625	-605.0486450195314	-396.702850341797	1297.912841796875	-563.8572998046876	-394.7264099121095	1249.348999023438	-546.4956665039064	-470.3219299316407	1227.636108398438	-598.8977050781251	-375.1390380859376	1061.395385742188	-721.7764892578126	-330.8351440429688	1053.462890625	-764.7534179687501	-347.0323791503907	1015.378662109375	-667.4865722656251	-267.8487243652344	1014.644714355469	-1044.919921875	-287.1832580566407	1003.206359863281	-828.4331665039065	-455.0396118164064	1093.18212890625	-948.9375610351565	-468.4188232421876	1068.481201171875	-977.2489013671877	-477.7779235839845	1068.201049804688	-924.238952636719	-400.4954833984376	825.829528808594	-1147.894775390625	-370.4384765625001	746.9008789062501	-1153.692504882813	-323.2731628417969	746.3026123046876	-1141.610229492188	-403.966033935547	695.2546997070314	-1149.169921875	-400.6281127929689	515.8359375000001	-1156.4052734375	-392.1876831054689	479.4917297363282	-1042.348510742188	-367.6921081542969	320.8058776855469	-1132.155151367188	-414.9854431152345	286.1994323730469	-1200.613037109375	-377.9038085937501	279.7449645996094	-1175.23046875	-375.8763732910157	197.5879058837891	-1155.642944335938	-431.7877197265626	103.0181579589844	-1207.674926757813	-391.2282104492189	103.1673583984375	-1127.492797851563	-487.0875549316407	53.40636444091798	-1176.15869140625	-269.6029663085938	60.49004364013673	-1151.619140625	-263.8715515136719	59.01386642456056	-1195.914184570313	-303.5804138183594	33.84218978881837	-1251.684814453125	-425.7213745117189	765.2273559570314	-748.5796508789064	-390.029754638672	709.9647827148439	-738.0654907226564	-356.6530151367188	709.9887084960939	-740.1778564453126	-418.6652221679689	630.8696899414064	-750.1342163085939	-415.0774536132814	504.9449157714845	-737.3811035156251	-391.5618896484376	474.2584228515626	-851.2163085937502	-383.5371093750001	336.7032470703126	-726.2814941406251	-467.3030395507814	263.8430480957032	-706.2542724609376	-420.391815185547	260.5918884277344	-704.5308227539064	-397.6652221679689	209.5461730957032	-726.8422241210939	-455.8274230957032	95.42240142822267	-703.1126708984376	-423.243865966797	101.2342605590821	-781.3635864257815	-509.3397827148439	49.04445266723634	-749.7631835937501	-291.3179626464844	53.04654693603517	-743.8732910156251	-290.8510131835938	57.62520599365236	-691.5444946289064	-338.8094787597657	36.41400909423829	-644.8227539062501	-4216.979003906251	853.169616699219	-3944.629394531251	
